<svg xmlns="http://www.w3.org/2000/svg" xmlns:xlink="http://www.w3.org/1999/xlink" version="1.1" x="0px" y="0px" viewBox="0 0 100 100" style="enable-background:new 0 0 100 100;" xml:space="preserve"><g><path d="M20.4,72.3c-2.8,4.4-2.7,9.3-2.7,9.4c0,0.5,0.4,0.9,0.9,0.9c0,0,0,0,0,0c0.5,0,0.9-0.4,0.9-0.9c0-0.3-0.1-5.3,3-9.4H20.4z"></path><path d="M77.5,72.3c3.1,4.1,3,9,3,9.4c0,0.5,0.4,0.9,0.9,0.9c0,0,0,0,0,0c0.5,0,0.9-0.4,0.9-0.9c0-0.1,0.1-5-2.7-9.4H77.5z"></path><path d="M89.4,17.4H38.3c-0.5,0-0.9,0.4-0.9,0.9s0.4,0.9,0.9,0.9h49.5c-1.4,2-7,8.8-18.1,9.7c-0.5,0-0.8,0.4-0.8,0.9v29.6   c0,0.4,0.3,0.8,0.7,0.9c0.1,0,14.1,3,17.1,9.5h-9.3c-2-2-4.8-3.5-8.7-4.2c-11.3-1.8-11.6-7.7-11.5-8.8c2.2-2.1,3.9-5.1,4.9-8h0.5   c1.6,0,2.9-1.3,2.9-2.9v-1.2H66c0.5,0,0.9-0.4,0.9-0.9v-3.9c0-0.5-0.4-0.9-0.9-0.9h-0.6v-2.1c0-1.5-1.2-2.7-2.6-2.8   C62,27.7,56.5,22.8,50,22.8c-6.5,0-12,4.9-12.8,11.3c-1.5,0.1-2.6,1.3-2.6,2.8V39H34c-0.5,0-0.9,0.4-0.9,0.9v3.9   c0,0.5,0.4,0.9,0.9,0.9h0.5v1.2c0,1.6,1.3,2.9,2.9,2.9h0.5c0.9,3,2.6,5.9,4.9,8c0,1-0.2,7-11.5,8.8c-4,0.6-6.7,2.2-8.7,4.2h-9.1   c3.1-6.5,17-9.5,17.1-9.5c0.4-0.1,0.7-0.4,0.7-0.9V29.8c0-0.5-0.4-0.8-0.8-0.9c-11-1-16.6-7.7-18.1-9.7h9.8c0.5,0,0.9-0.4,0.9-0.9   s-0.4-0.9-0.9-0.9H10.6c-0.5,0-0.9,0.4-0.9,0.9v52.4c0,0.5,0.4,0.9,0.9,0.9h78.9c0.5,0,0.9-0.4,0.9-0.9V18.3   C90.3,17.8,89.9,17.4,89.4,17.4z M11.4,69.7V20.8c2.1,2.7,7.7,8.5,18,9.7v28.1C26.3,59.4,14,62.7,11.4,69.7L11.4,69.7z M50,24.6   c5.5,0,10.2,4.1,11,9.5H39C39.8,28.7,44.5,24.6,50,24.6z M37.4,47c-0.6,0-1.1-0.5-1.1-1.1v-0.8l4.7-2.9c0.2-0.1,0.2-0.3,0.1-0.5   c-0.1-0.2-0.3-0.2-0.5-0.1l-4.4,2.7v-1.4L41,40c0.2-0.1,0.2-0.3,0.1-0.5c-0.1-0.2-0.3-0.2-0.5-0.1l-4.4,2.7v-5.2   c0-0.6,0.5-1.1,1.1-1.1H38H62h0.6c0.6,0,1.1,0.5,1.1,1.1v9c0,0.6-0.5,1.1-1.1,1.1h-1.1h-6.9l-1.8-3.2c-0.6-1-1.6-1.6-2.8-1.6   c-1.2,0-2.2,0.6-2.8,1.6L45.4,47h-6.9H37.4z M39.7,48.8H46c0.3,0,0.7-0.2,0.8-0.5c0,0,0-0.1,0-0.1l2-3.4C49,44.3,49.5,44,50,44   s1,0.3,1.2,0.7l1.9,3.4c0,0,0,0.1,0.1,0.2c0.1,0.3,0.5,0.5,0.8,0.5h6.2c-1.7,4.8-5.6,9.5-10.3,9.5C45.4,58.3,41.4,53.6,39.7,48.8z    M25.2,69.7c1.6-1.1,3.7-2,6.3-2.4c10.2-1.6,12.4-6.5,12.9-9.2C46.1,59.3,48,60,50,60c2,0,3.9-0.7,5.6-1.9   c0.5,2.6,2.7,7.5,12.9,9.2c2.6,0.4,4.7,1.3,6.3,2.4H25.2z M88.6,69.3c-2.9-6.7-14.7-9.9-17.8-10.6V30.6c9.9-1.1,15.5-6.6,17.8-9.4   V69.3z"></path><path d="M25.3,19.1h9.6c0.5,0,0.9-0.4,0.9-0.9s-0.4-0.9-0.9-0.9h-9.6c-0.5,0-0.9,0.4-0.9,0.9S24.8,19.1,25.3,19.1z"></path></g></svg>